<svg xmlns="http://www.w3.org/2000/svg" width="22.099" height="18.385" viewBox="0 0 22.099 18.385">
  <g id="right-arrow" transform="translate(0 -41.346)">
    <g id="Group_13" data-name="Group 13" transform="translate(0 41.346)">
      <path id="Path_93" data-name="Path 93" d="M21.746,49.68,13.765,41.7a1.213,1.213,0,0,0-1.711,0l-.725.725a1.2,1.2,0,0,0-.353.855,1.224,1.224,0,0,0,.353.865l4.656,4.666H1.194A1.18,1.18,0,0,0,0,50v1.025a1.226,1.226,0,0,0,1.194,1.242H16.038L11.33,56.958a1.2,1.2,0,0,0,0,1.7l.725.722a1.213,1.213,0,0,0,1.711,0L21.746,51.4a1.22,1.22,0,0,0,0-1.717Z" transform="translate(0 -41.346)" fill="#1e3b6c"/>
    </g>
  </g>
</svg>
