<svg xmlns="http://www.w3.org/2000/svg" width="17.384" height="17.384" viewBox="0 0 17.384 17.384">
  <g id="facebook" transform="translate(-491 -91.615)">
    <g id="Group_13" data-name="Group 13" transform="translate(491 91.615)">
      <path id="Path_93" data-name="Path 93" d="M16.424,0H.959A.959.959,0,0,0,0,.96V16.425a.959.959,0,0,0,.96.959H16.424a.959.959,0,0,0,.96-.959h0V.959A.959.959,0,0,0,16.424,0Zm0,0" fill="#1e3b6c"/>
      <path id="Path_94" data-name="Path 94" d="M211.974,92.083V85.36h2.266l.34-2.631h-2.606V81.053c0-.76.211-1.278,1.3-1.278h1.381V77.428a18.567,18.567,0,0,0-2.024-.1,3.161,3.161,0,0,0-3.374,3.468v1.937H207V85.36h2.258v6.723Zm0,0" transform="translate(-199.972 -74.699)" fill="#fff"/>
    </g>
  </g>
</svg>
