<svg xmlns="http://www.w3.org/2000/svg" width="159" height="137" viewBox="0 0 159 137">
  <g id="Vector_Smart_Object" data-name="Vector Smart Object" transform="translate(-77.917 -92.821)">
    <g id="Group_7" data-name="Group 7">
      <path id="Path_47" data-name="Path 47" d="M105.074,192.586a.206.206,0,0,1,.1.252A9.571,9.571,0,0,1,98.19,198.7a9.444,9.444,0,0,1-7.325-1.179,10.149,10.149,0,0,1-4.152-6.542,10.331,10.331,0,0,1,1.36-7.517,9.215,9.215,0,0,1,6.294-4.048,11.613,11.613,0,0,1,5.528.269c.406.141.511.121.524-.1l.082-.721c.023-.167.075-.176.39-.235s.377-.016.445.35c.088.472,1.4,4.563,1.647,5.33.056.152.044.235-.056.281l-.469.25c-.121.077-.219-.013-.337-.208a9.439,9.439,0,0,0-2.681-3.022,6.356,6.356,0,0,0-4.922-1.086c-4.193.783-5.217,4.877-4.511,8.648a10.784,10.784,0,0,0,3.684,6.358,5.749,5.749,0,0,0,4.889,1.2,7.775,7.775,0,0,0,5.694-4.208c.1-.208.187-.306.28-.242Z" fill="#1e3c6c"/>
      <path id="Path_48" data-name="Path 48" d="M122.989,189.551c.058.047.064.1.081.26-.089.17-.677,4.681-.759,5.413-.692.047-8.331.813-11.034,1.1-2.386.256-3.331.438-3.649.472-.212.023-.218-.03-.238-.216l-.065-.609c-.018-.159-.023-.212.136-.229l1.06-.114c.954-.1,1.073-.49,1.037-.835-.052-.477-.657-7.11-.827-8.7l-.16-1.483c-.182-1.7-.537-4.5-.638-4.942-.128-.683-.262-.936-.951-.862l-1.114.119a.229.229,0,0,1-.237-.216l-.065-.609c-.017-.159.03-.218.189-.233.265-.028,1.228-.052,3.666-.313,2.862-.307,3.967-.506,4.179-.53s.276.078.291.21l.065.61c.012.106-.03.218-.242.241l-1.431.153c-.8.085-.873.362-.8,1.076.04.371.361,4.356.56,6.21l.244,2.278c.051.477.666,6.2.894,7.325l1.485-.159c1.484-.159,3.393-.364,4.438-.61,1.461-.372,2.816-3.732,3.079-4.778.095-.117.142-.176.307-.14Z" fill="#1e3c6c"/>
      <path id="Path_49" data-name="Path 49" d="M140.326,176.926a9.9,9.9,0,0,1,4.031,7.687,9.259,9.259,0,0,1-1.665,5.956,9.445,9.445,0,0,1-7.791,4.194,12.256,12.256,0,0,1-6.109-1.443,9.327,9.327,0,0,1-4.3-7.674,10.589,10.589,0,0,1,2.105-6.726,9.133,9.133,0,0,1,7.331-3.8A9.444,9.444,0,0,1,140.326,176.926Zm-10.2,1.064a9.5,9.5,0,0,0-2.061,6.564c.36,6.918,4.748,9.144,6.984,9.028,5.378-.28,5.919-6.284,5.8-8.52-.3-5.8-4.415-8.895-6.97-8.762A4.588,4.588,0,0,0,130.13,177.989Z" fill="#1e3c6c"/>
      <path id="Path_50" data-name="Path 50" d="M165.663,191.115c0,.373.108.639.109.852s-.159.32-.425.427a15.441,15.441,0,0,1-7.566,1.781c-2.612.008-5.867-.888-7.687-3.067a10.117,10.117,0,0,1-2.474-7.239,8.993,8.993,0,0,1,3.018-6.722,10.88,10.88,0,0,1,7.563-2.634,9.824,9.824,0,0,1,5.442,1.422c.321.238.48.158.639-.055l.319-.427c.133-.187.213-.267.372-.268.267,0,.321.159.321.372l.283,5.328c0,.213,0,.346-.106.373l-.64.108c-.159.027-.213-.053-.267-.212a10.571,10.571,0,0,0-2.144-3.67,6.018,6.018,0,0,0-4.431-1.852,5.482,5.482,0,0,0-4.525,2.092,9.311,9.311,0,0,0-2.168,6.027c.01,3.144.871,5.859,2.422,7.4a5.769,5.769,0,0,0,4.271,1.8,7.284,7.284,0,0,0,3.623-.7c.585-.321.637-1.067.632-2.453l-.006-1.945c0-.959-.27-1.224-.963-1.222l-1.12,0c-.16,0-.214-.106-.215-.239l0-.613c0-.16.053-.213.159-.213.32,0,1.6.075,3.785.068,2.24-.007,3.145-.09,3.412-.09.213,0,.267.053.267.185l0,.666c0,.159-.053.213-.213.213l-.906,0c-.48,0-.8.216-.8.988Z" fill="#1e3c6c"/>
      <path id="Path_51" data-name="Path 51" d="M175.743,184.825c-.293-.014-.378.088-.391.328L175.3,186.3c-.047.958-.147,4.047-.184,5.885,0,.64.275.921.861.95l.959.047c.213.011.264.066.257.2l-.03.612c-.008.16-.066.263-.279.253-.479-.024-1.38-.148-3.564-.256-2.609-.128-3.412-.088-3.944-.114-.214-.011-.261-.12-.255-.253l.03-.612c.007-.16.064-.21.276-.2l1.385.068c.639.031.777-.6.807-1.214.063-1.277.266-4.308.35-6.011l.168-3.406c.039-.8.149-4.1.168-4.5.066-1.33-.075-1.71-.928-1.752l-1.172-.058c-.213-.011-.261-.119-.255-.253l.028-.559a.249.249,0,0,1,.28-.253c.479.024,1.327.145,3.936.274,2.4.118,3.359.086,3.838.109.213.011.261.119.255.253l-.028.559c-.008.16-.066.263-.279.253l-.959-.047c-.959-.047-1.086.373-1.164,1.409-.045.372-.325,3.878-.359,4.57l-.053,1.064c-.013.266.062.376.3.388l8.787.433c.426.021.536-.054.55-.346l.039-.8c.047-.958.124-4.688.113-4.982.015-.853-.067-1.337-.653-1.366l-1.225-.061c-.186-.01-.209-.09-.2-.25l.03-.612c.006-.133.037-.211.223-.2.48.023,1.647.161,3.777.266,2.023.1,3.092.072,3.518.093.266.013.314.122.308.255l-.028.559c-.007.159-.066.263-.333.25l-.958-.047c-.8-.039-.873.384-.919,1.315-.018.372-.25,3.988-.292,4.84l-.142,2.874c-.058,1.17-.191,4.952-.266,6.468-.047.958.2,1.344,1,1.383l1.064.053c.16.007.209.09.2.2l-.03.612c-.008.16-.066.264-.28.253-.426-.021-1.327-.145-3.616-.258-2.5-.124-3.359-.085-4.1-.123a.215.215,0,0,1-.2-.25l.03-.612c.006-.133.037-.212.224-.2l1.438.071c.639.032.689-.446.751-1.163.116-1.275.38-5.529.4-6.008l.037-.746c.012-.239-.2-.33-.57-.348Z" fill="#1e3c6c"/>
      <path id="Path_52" data-name="Path 52" d="M198.769,187.942c-.125,1.433-.347,4.036-.4,4.512-.147,1.377.275,1.958.842,2.179a8.447,8.447,0,0,0,2.045.431c.477.05,1.7.126,2.238.13a4.554,4.554,0,0,0,2.27-.671c.522-.373,2.192-1.965,2.762-2.548.12-.121.2-.139.3-.075l.4.31c.074.062.092.144.026.271l-1.693,3.84a.566.566,0,0,1-.625.336c-.132-.014-.713-.1-2.354-.3-1.67-.177-4.4-.492-8.825-.96-.981-.1-1.7-.153-2.257-.212-.533-.029-.907-.042-1.146-.067-.158-.017-.206-.075-.189-.234l.067-.636c.016-.159.075-.206.287-.184l.9.1c1.219.129,1.343-.019,1.446-1l.668-6.306.275-2.6c.23-2.172.525-5.463.511-5.84-.03-.726-.273-.966-1.068-1.05l-1.008-.107c-.106-.011-.153-.07-.139-.2l.073-.689c.014-.133.046-.183.179-.169.583.062,1.526.269,3.7.472l.742.079c1.166.123,7.27.715,8.436.838.424.045.93.072,1.063.086a.186.186,0,0,1,.195.182c.07.356.7,4.065.774,4.341.037.165,0,.242-.111.283l-.5.161c-.082.019-.159-.016-.225-.157a25.113,25.113,0,0,0-2.6-3.276,4.6,4.6,0,0,0-1.943-.9l-4.018-.533-.863,7.652a30.3,30.3,0,0,0,3.037.187,1.49,1.49,0,0,0,1.32-.825,4.257,4.257,0,0,0,.582-1.439.2.2,0,0,1,.234-.19l.683.126c.106.012.18.073.137.229-.1.418-.283,2.167-.356,2.856-.113,1.06-.141,2.343-.15,2.932-.014.132-.07.153-.232.163l-.595.045c-.109.015-.156-.044-.192-.208a11.262,11.262,0,0,0-.284-1.37,1.631,1.631,0,0,0-1.225-1.094c-.943-.207-2.21-.394-3.058-.484Z" fill="#1e3c6c"/>
      <path id="Path_53" data-name="Path 53" d="M216.327,190.964c-.286,1.573-.765,4.519-.784,4.922-.016.538.081,1.043.5,1.119l1.312.237c.158.029.2.117.177.222l-.114.629c-.033.183-.121.221-.332.184-.341-.062-.851-.235-3.58-.73-2.571-.465-3.215-.5-3.478-.548-.157-.028-.2-.116-.167-.273l.11-.6c.023-.131.09-.2.195-.181l.892.161c.578.1,1.026.023,1.154-.685.528-2.613.974-5.077,1.421-7.542l1.25-6.9c.161-.892-.13-1.378-.6-1.463l-1.023-.185c-.131-.024-.174-.085-.155-.191l.128-.708c.024-.131.086-.174.217-.151.183.033,1.009.263,3.58.729,1.469.266,3.9.624,4.684.767a7.169,7.169,0,0,1,4.476,2.516,4.08,4.08,0,0,1,.885,3.193c-.6,3.3-2.84,4.306-5.811,4.256l-.02.1a3.484,3.484,0,0,1,1.356,1.491c.239.476,1.419,3.235,1.572,3.588a36.917,36.917,0,0,0,1.689,3.393,2.8,2.8,0,0,0,1.773.835c.157.029.2.117.176.222l-.1.55c-.033.184-.1.253-.257.225-.21-.038-.878-.24-2.557-.544-.735-.133-1.741-.261-2.324-.339a7.017,7.017,0,0,1-.884-1.7c-.339-.82-1.02-2.893-1.18-3.355-.177-.519-.693-1.859-1.008-2.512-.489-1.036-.964-1.853-2.066-2.053-.105-.019-.556-.073-.849-.1Zm.48-2.35a7.241,7.241,0,0,0,.978.285,4.662,4.662,0,0,0,5.749-3.617,4.2,4.2,0,0,0-.622-3.145,5.1,5.1,0,0,0-3.259-1.754,1.884,1.884,0,0,0-.973-.013.914.914,0,0,0-.452.7Z" fill="#1e3c6c"/>
    </g>
    <g id="Group_8" data-name="Group 8">
      <path id="Path_54" data-name="Path 54" d="M91.933,204.492c-.016-.073,0-.1.076-.119.1-.021.666-.108,1.445-.28,1.023-.225,1.332-.331,1.429-.353.073-.016.1,0,.116.064l.067.3a.087.087,0,0,1-.076.119l-.292.064a1.05,1.05,0,0,0-.766.756c-.259.733-.572,2.793-.735,3.671-.125.589-.8,4.464-.868,4.747a.287.287,0,0,1-.209.212c-.146.032-.236-.088-.329-.221-.642-.943-2.279-3.5-2.943-4.545-.51-.807-1.389-2.246-1.6-2.57a.53.53,0,0,0-.609-.275l-.292.065c-.049.011-.081-.021-.1-.093l-.062-.28c-.016-.073,0-.1.052-.113.122-.027.544-.082,1.81-.361,1.144-.252,1.7-.412,1.794-.434s.13.01.143.071l.059.268c.019.085,0,.127-.071.143l-.584.129c-.316.07-.485.234-.444.417a1.906,1.906,0,0,0,.128.406c.182.419.961,1.753,1.36,2.406.273.425,1.354,2.2,1.694,2.817l.024-.005-.005-.024c.142-.746.476-2.937.517-3.329a19.7,19.7,0,0,0,.309-3.118c-.032-.146-.2-.314-.538-.239l-.329.073c-.048.011-.1-.03-.109-.091Z" fill="#1e3c6c"/>
      <path id="Path_55" data-name="Path 55" d="M97.973,208.753c-.05.3-.356,2.157-.361,2.5a1.061,1.061,0,0,0,.019.262c.027.16.246.261.492.22l.516-.087c.1-.016.128,0,.133.041l.052.307c.013.074,0,.127-.078.14-.172.029-.694.079-1.555.225-.91.153-1.174.236-1.346.265-.074.012-.086-.062-.1-.148l-.039-.233c-.012-.074.008-.1.057-.111l.369-.062c.344-.058.536-.267.693-.686.086-.242.6-2.6.792-3.7.044-.26.591-3.081.66-3.421,0-.127.04-.361-.046-.422a.284.284,0,0,1-.1-.135c-.009-.049.008-.1.1-.143a4.04,4.04,0,0,0,1.113-.82c.061-.086.1-.143.164-.153s.148.126.185.2c.35.724,1.774,3.313,2.127,4.062.457.909,1.63,3.061,1.858,3.363a.94.94,0,0,0,.882.432l.394-.066c.073-.012.1.008.113.07l.044.258c.012.074,0,.151-.1.168-.221.037-.473.042-1.825.27-1.032.174-1.444.282-1.715.328-.1.016-.135-.053-.148-.127l-.041-.246c-.013-.073.008-.1.082-.115l.319-.054c.344-.058.422-.2.292-.517-.173-.425-.93-1.915-1.155-2.344Zm2.645-.952c-.183-.336-1.492-3-1.607-3.228-.074-.139-.111-.209-.16-.2-.074.012-.114.07-.133.187-.022.168-.617,3.376-.656,3.673Z" fill="#1e3c6c"/>
      <path id="Path_56" data-name="Path 56" d="M113.619,207.365c.028.021.031.046.04.12-.04.081-.275,2.194-.307,2.537-.323.028-3.887.454-5.148.613-1.113.141-1.553.234-1.7.253-.1.012-.1-.012-.113-.1l-.036-.284c-.01-.074-.013-.1.062-.108l.494-.063c.445-.056.5-.238.477-.4-.028-.222-.37-3.318-.464-4.059l-.088-.692c-.1-.791-.291-2.1-.342-2.3-.065-.318-.131-.435-.452-.395l-.519.065a.107.107,0,0,1-.113-.1l-.036-.284c-.009-.074.012-.1.087-.114.123-.016.573-.035,1.711-.179,1.335-.169,1.85-.271,1.949-.281s.13.034.138.1l.036.284c.006.049-.012.1-.112.115l-.667.084c-.371.047-.4.177-.362.511.022.173.207,2.033.316,2.9l.135,1.063c.028.222.366,2.891.483,3.416l.692-.088c.692-.088,1.582-.2,2.069-.324.68-.186,1.284-1.769,1.4-2.261.043-.056.065-.083.142-.068Z" fill="#1e3c6c"/>
      <path id="Path_57" data-name="Path 57" d="M122.476,206.495c.028.022.03.047.037.122-.043.079-.34,2.185-.382,2.526-.324.019-3.9.339-5.163.462-1.116.108-1.559.188-1.708.2-.1.01-.1-.015-.11-.1l-.028-.285c-.007-.074-.01-.1.065-.106l.5-.048c.446-.043.5-.224.488-.385-.021-.223-.272-3.327-.344-4.071l-.067-.694c-.077-.794-.229-2.105-.275-2.314-.055-.32-.117-.439-.44-.408l-.521.05a.107.107,0,0,1-.11-.1l-.028-.285c-.007-.074.015-.1.09-.11.124-.012.574-.018,1.715-.128,1.34-.13,1.857-.217,1.956-.225s.129.038.135.1l.028.285c0,.049-.015.1-.115.111l-.67.065c-.372.036-.41.165-.377.5.017.174.147,2.038.231,2.906l.1,1.066c.021.223.281,2.9.381,3.429l.695-.067c.694-.067,1.588-.153,2.078-.263.685-.166,1.335-1.731,1.463-2.218.045-.055.067-.082.144-.064Z" fill="#1e3c6c"/>
      <path id="Path_58" data-name="Path 58" d="M126.475,205.146c.06.67.172,1.887.188,2.11.046.646.287.879.566.934a3.953,3.953,0,0,0,.977.031c.224-.016.794-.081,1.041-.124a2.128,2.128,0,0,0,.99-.495c.21-.215.848-1.085,1.063-1.4.045-.066.082-.081.133-.059l.208.11c.039.022.054.058.033.123l-.464,1.907a.263.263,0,0,1-.26.205c-.062,0-.336.012-1.108.054s-2.066.134-4.142.281c-.461.033-.8.069-1.056.088s-.421.055-.533.063c-.074.005-.1-.018-.106-.092l-.021-.3c-.005-.075.018-.1.117-.108l.423-.03c.572-.04.616-.119.583-.578l-.21-2.958-.087-1.218c-.072-1.02-.207-2.559-.244-2.731-.073-.332-.205-.423-.578-.4l-.473.033c-.049,0-.076-.02-.08-.082l-.023-.323c0-.062.006-.088.069-.092.274-.02.725,0,1.744-.087l.348-.024c.547-.039,3.406-.267,3.953-.306.2-.014.435-.044.5-.048a.087.087,0,0,1,.1.067c.061.158.654,1.815.713,1.935.03.073.02.111-.028.14l-.216.115c-.037.015-.075.005-.117-.054a11.705,11.705,0,0,0-1.466-1.3,2.146,2.146,0,0,0-.969-.256l-1.894.084.23,3.594a14,14,0,0,0,1.414-.163.7.7,0,0,0,.54-.488,1.992,1.992,0,0,0,.149-.71.091.091,0,0,1,.092-.107l.325,0c.049,0,.089.019.081.094-.011.2.048,1.021.071,1.344.036.5.128,1.09.172,1.361,0,.062-.02.076-.094.094l-.27.07c-.049.015-.075-.007-.106-.08a5.249,5.249,0,0,0-.243-.607.762.762,0,0,0-.654-.4c-.451-.018-1.05,0-1.448.028Z" fill="#1e3c6c"/>
      <path id="Path_59" data-name="Path 59" d="M137.827,205.769c.022.473.087,1.293.106,1.429.056.4.257.412.506.4l.411-.019a.079.079,0,0,1,.091.083l.013.286c0,.087-.019.126-.081.129-.137.006-.637-.007-1.758.046-1.22.058-1.617.114-1.729.119-.062,0-.089-.046-.092-.108l-.014-.286a.088.088,0,0,1,.083-.1l.511-.024c.324-.015.417-.144.421-.332s-.017-1.146-.073-2.317l-.028-.6c-.217-.364-2.405-3.852-2.775-4.271a.891.891,0,0,0-.635-.244l-.224.011c-.075,0-.1-.02-.1-.082l-.016-.336c0-.049.021-.076.1-.082.1,0,.7,0,1.646-.041,1.27-.061,1.717-.119,1.841-.122.075,0,.1.02.1.082l.014.286c0,.075-.019.126-.094.129l-.324.015c-.274.013-.369.117-.332.378.036.223,1.661,2.915,2.031,3.6A36.635,36.635,0,0,0,139.3,200.1c.014-.226-.071-.446-.445-.428l-.324.015c-.075,0-.1-.033-.1-.1l-.015-.311c0-.062.021-.088.071-.093.124-.006.649.007,1.521-.035.8-.038,1.07-.089,1.194-.091.075,0,.1.02.1.082l.014.286c0,.075-.019.125-.094.129l-.274.013a.987.987,0,0,0-.659.318c-.189.234-2.1,3.517-2.539,4.362Z" fill="#1e3c6c"/>
      <path id="Path_60" data-name="Path 60" d="M153.845,205.067c.026.024.026.049.028.124-.049.076-.51,2.152-.578,2.489-.324-.006-3.914.034-5.185.057-1.121.02-1.57.066-1.719.068-.1,0-.1-.023-.1-.11l-.005-.287c0-.074,0-.1.073-.1l.5-.009c.448-.008.52-.184.518-.346,0-.225-.011-3.338-.025-4.086l-.013-.7c-.014-.8-.063-2.117-.092-2.328-.031-.323-.083-.447-.407-.441l-.523.01a.108.108,0,0,1-.1-.11l-.005-.286c0-.075.023-.1.1-.1.125,0,.574.027,1.72.006,1.346-.024,1.869-.071,1.969-.076s.125.048.126.11l.005.286c0,.05-.023.1-.123.1l-.673.012c-.374.007-.421.132-.415.469,0,.174-.013,2.043,0,2.915l.02,1.071c0,.224.053,2.914.113,3.449l.7-.013c.7-.013,1.6-.029,2.092-.1.7-.113,1.466-1.622,1.632-2.1.049-.05.073-.076.149-.053Z" fill="#1e3c6c"/>
      <path id="Path_61" data-name="Path 61" d="M157.872,203.592c0,.125.035,2.991.035,3.128,0,.4.2.448.5.447l.524,0a.089.089,0,0,1,.1.087v.312c0,.074-.05.1-.125.1-.15,0-.649-.035-1.821-.031-1.247,0-1.8.043-1.92.044-.075,0-.1-.024-.1-.087v-.337c0-.05.025-.075.1-.075l.5,0c.249,0,.524-.026.573-.363.024-.174.04-2.866.038-3.539l0-.872c0-.3-.033-2.542-.046-2.7-.038-.3-.163-.423-.512-.422l-.649,0c-.074,0-.1-.024-.1-.087v-.324c0-.062.025-.087.074-.088.15,0,.8.035,2.02.031,1.2,0,1.6-.042,1.771-.043.074,0,.1.05.1.112v.287a.091.091,0,0,1-.1.1l-.474,0c-.275,0-.473.1-.473.338,0,.124-.015,2.866-.015,3.016Z" fill="#1e3c6c"/>
      <path id="Path_62" data-name="Path 62" d="M166.585,198.947c0-.075.027-.1.1-.1.1,0,.672.047,1.47.058,1.047.015,1.371-.018,1.471-.014.075,0,.1.027.1.089l0,.311c0,.062-.027.1-.1.1l-.3,0a1.049,1.049,0,0,0-.918.56c-.421.654-1.2,2.587-1.557,3.4-.257.544-1.8,4.159-1.933,4.419a.285.285,0,0,1-.252.158c-.149,0-.209-.14-.27-.29-.408-1.065-1.414-3.932-1.821-5.1-.311-.9-.837-2.5-.969-2.866a.528.528,0,0,0-.53-.406l-.3,0q-.075,0-.073-.113l0-.287c0-.075.027-.1.077-.1.124,0,.547.045,1.843.064,1.172.016,1.745-.012,1.845-.009s.124.039.123.1l0,.274c0,.087-.027.124-.1.123l-.6-.009c-.324,0-.525.117-.528.3a1.91,1.91,0,0,0,.031.424c.081.45.533,1.926.772,2.652.167.476.812,2.453,1,3.128h.025v-.025c.309-.693,1.137-2.749,1.266-3.121a19.574,19.574,0,0,0,1.015-2.962c0-.149-.12-.35-.469-.356l-.336,0c-.05,0-.086-.051-.086-.113Z" fill="#1e3c6c"/>
      <path id="Path_63" data-name="Path 63" d="M173.606,204.271c-.011.673-.03,1.894-.038,2.118-.023.648.192.9.464.989a3.963,3.963,0,0,0,.968.134c.224.008.8,0,1.049-.012a2.13,2.13,0,0,0,1.037-.387c.232-.191.959-.988,1.207-1.279.052-.061.09-.072.139-.045l.195.132c.037.027.047.064.021.125l-.665,1.847a.263.263,0,0,1-.281.177c-.062,0-.336-.024-1.108-.064s-2.068-.087-4.149-.161c-.461-.016-.8-.016-1.059-.025s-.425.01-.537.006c-.075,0-.1-.029-.1-.1l.011-.3c0-.075.028-.1.128-.1l.423.015c.573.021.626-.053.642-.513l.106-2.964.044-1.22c.036-1.022.067-2.566.048-2.742-.038-.338-.159-.442-.533-.455l-.474-.017c-.049,0-.073-.028-.071-.09l.012-.323c0-.063.015-.087.078-.084.274.01.72.075,1.743.1l.349.013c.548.02,3.415.1,3.964.117.2.007.436,0,.5.005a.087.087,0,0,1,.1.079c.044.164.457,1.874.5,2,.022.075.008.113-.042.136l-.228.091c-.038.011-.075,0-.109-.066a11.784,11.784,0,0,0-1.321-1.444,2.142,2.142,0,0,0-.936-.357l-1.892-.118-.154,3.6c.374.013,1.271.02,1.423-.012a.7.7,0,0,0,.589-.428,1.989,1.989,0,0,0,.224-.69.091.091,0,0,1,.1-.1l.324.037c.049,0,.086.028.071.1-.032.2-.062,1.02-.073,1.344-.018.5.011,1.1.026,1.373,0,.062-.028.074-.1.083l-.276.04c-.05.011-.075-.015-.1-.091a5.339,5.339,0,0,0-.177-.63.761.761,0,0,0-.607-.47c-.446-.066-1.044-.113-1.442-.127Z" fill="#1e3c6c"/>
      <path id="Path_64" data-name="Path 64" d="M180.965,205.416c.05,0,.073.029.069.1a2.874,2.874,0,0,0,.392,1.445,1.935,1.935,0,0,0,1.592.988,1.523,1.523,0,0,0,1.7-1.364c.065-1.144-.436-1.547-1.727-2.119a5.908,5.908,0,0,1-1.758-1.148,2.369,2.369,0,0,1-.522-1.814,2.115,2.115,0,0,1,.97-1.692,2.547,2.547,0,0,1,1.8-.5,3.919,3.919,0,0,1,1.551.387.215.215,0,0,0,.264-.022l.171-.153a.226.226,0,0,1,.179-.064c.075,0,.1.08.088.2-.011.2.089,1.951.082,2.076,0,.05-.029.073-.08.083l-.2.051a.1.1,0,0,1-.12-.082,3.578,3.578,0,0,0-.7-1.362,1.637,1.637,0,0,0-1.265-.6,1.33,1.33,0,0,0-1.464,1.178,1.517,1.517,0,0,0,.285,1.139,4.182,4.182,0,0,0,1.474.857,3.923,3.923,0,0,1,1.737,1.072,2.389,2.389,0,0,1,.521,1.813,2.6,2.6,0,0,1-2.795,2.612,3.257,3.257,0,0,1-2.082-.717c-.143-.108-.215-.162-.29-.166s-.131.092-.213.212-.133.142-.232.137-.145-.083-.138-.208c.033-.148.322-2.153.355-2.3.016-.074.03-.1.08-.1Z" fill="#1e3c6c"/>
      <path id="Path_65" data-name="Path 65" d="M191.559,200.566l-.348-.028a6.918,6.918,0,0,0-1.828.03c-.412.142-.949.924-1.219,1.328-.042.059-.084.106-.144.076l-.241-.107c-.048-.029-.057-.067-.04-.128.162-.462.715-2.068.778-2.238.039-.172.117-.216.167-.211.075.006.121.059.189.14a1.118,1.118,0,0,0,.82.39c.668.078,1.187.169,2.4.267l.672.053c1.367.109,1.893.1,2.466.121a2.284,2.284,0,0,0,.921-.252c.105-.066.158-.113.233-.106s.1.057.108.209c.007.226.133,1.785.185,2.389.006.075-.021.1-.059.108l-.256.067c-.05.008-.073-.031-.1-.108a4.9,4.9,0,0,0-.871-1.469,5.968,5.968,0,0,0-1.9-.376l-.349-.028-.527,6.621c-.075.944.029,1.2.327,1.226l.722.057c.049,0,.071.055.065.117l-.021.261c-.006.074-.035.122-.134.114-.124-.01-.52-.079-1.862-.186-1.268-.1-1.793-.105-1.966-.118-.075-.006-.1-.033-.09-.12l.022-.286c.006-.074.045-.1.1-.092l.709.056a.373.373,0,0,0,.437-.3c.063-.32.365-4.121.385-4.369Z" fill="#1e3c6c"/>
      <path id="Path_66" data-name="Path 66" d="M206.015,202.267a4.632,4.632,0,0,1,1.275,3.853,4.332,4.332,0,0,1-1.222,2.621,4.417,4.417,0,0,1-3.913,1.342,5.727,5.727,0,0,1-2.708-1.13,4.358,4.358,0,0,1-1.4-3.867,4.95,4.95,0,0,1,1.483-2.943,4.271,4.271,0,0,1,3.671-1.194A4.419,4.419,0,0,1,206.015,202.267Zm-4.785-.284a4.442,4.442,0,0,0-1.451,2.871c-.36,3.219,1.494,4.58,2.534,4.7,2.5.28,3.21-2.449,3.326-3.489.3-2.7-1.359-4.439-2.549-4.572A2.145,2.145,0,0,0,201.23,201.983Z" fill="#1e3c6c"/>
      <path id="Path_67" data-name="Path 67" d="M217.55,209.972a.1.1,0,0,1,.006.127,4.48,4.48,0,0,1-3.993,1.5,4.417,4.417,0,0,1-3.049-1.657,4.749,4.749,0,0,1-.817-3.531,4.835,4.835,0,0,1,1.768-3.106,4.314,4.314,0,0,1,3.406-.81,5.437,5.437,0,0,1,2.4.976c.157.125.207.133.247.038l.148-.3c.037-.07.061-.066.209-.044s.168.052.142.224c-.034.221-.092,2.23-.1,2.607,0,.076-.017.111-.069.116l-.245.038c-.065.015-.1-.04-.117-.144a4.406,4.406,0,0,0-.713-1.75,2.975,2.975,0,0,0-2-1.243c-1.972-.3-3.06,1.343-3.334,3.116a5.039,5.039,0,0,0,.638,3.378,2.685,2.685,0,0,0,1.971,1.288,3.639,3.639,0,0,0,3.167-.973c.074-.076.13-.106.16-.063Z" fill="#1e3c6c"/>
      <path id="Path_68" data-name="Path 68" d="M222.163,209.516c-.128.61-.478,2.4-.5,2.581a.278.278,0,0,0,.224.327l.464.1c.048.01.092.045.084.081l-.069.329c-.011.049-.045.092-.094.082-.146-.031-.5-.144-1.554-.364s-1.447-.266-1.57-.291c-.049-.011-.068-.04-.055-.1l.069-.33a.066.066,0,0,1,.089-.057l.439.092c.219.046.337-.031.378-.162.032-.095.523-2.309.841-3.821l.148-.707c.046-.22.514-2.566.537-2.676.031-.146-.012-.308-.3-.37l-.366-.076c-.073-.015-.092-.045-.08-.106l.069-.329c.011-.049.04-.068.113-.055.147.031.5.144,1.554.364.952.2,1.35.245,1.521.283.073.015.092.045.08.106l-.064.3c-.016.073-.045.093-.118.078l-.39-.082c-.244-.051-.382,0-.44.277-.041.195-.489,2.087-.613,2.673l-.113.536.22.046a.625.625,0,0,0,.451-.084c.273-.147,2.952-2.347,3.125-2.5.222-.208.106-.386-.113-.431l-.183-.038c-.048-.011-.056-.038-.043-.1l.062-.293c.015-.073.045-.092.094-.084.147.031.627.169,1.432.339.488.1.91.152,1.057.185.073.015.092.045.08.106l-.064.3a.091.091,0,0,1-.118.077l-.244-.051a1.335,1.335,0,0,0-.727.064,23.627,23.627,0,0,0-3.383,2.4c.36.713,2.173,4.454,2.449,4.957a.919.919,0,0,0,.671.447l.268.056a.089.089,0,0,1,.08.106l-.065.3c-.015.073-.045.092-.117.077-.123-.025-.554-.154-1.677-.39-1.024-.215-1.5-.276-1.667-.312-.049-.01-.068-.04-.053-.113l.064-.3a.066.066,0,0,1,.089-.058l.171.036a.222.222,0,0,0,.262-.276c-.071-.27-1.454-3.514-1.608-3.749a.58.58,0,0,0-.379-.258l-.22-.046Z" fill="#1e3c6c"/>
    </g>
    <g id="Group_9" data-name="Group 9">
      <path id="Path_69" data-name="Path 69" d="M157.417,215.91c39.1,0,71.744,3.7,79.5,8.639-7.756-7.037-40.4-12.32-79.5-12.32s-71.744,5.283-79.5,12.32C85.673,219.614,118.32,215.91,157.417,215.91Z" fill="#1e3c6c"/>
    </g>
    <g id="Group_10" data-name="Group 10">
      <path id="Path_70" data-name="Path 70" d="M157.417,169.065c39.1,0,71.744,3.7,79.5,8.639-7.756-7.038-40.4-12.321-79.5-12.321s-71.744,5.283-79.5,12.321C85.673,172.769,118.32,169.065,157.417,169.065Z" fill="#1e3c6c"/>
    </g>
    <g id="Group_11" data-name="Group 11">
      <path id="Path_71" data-name="Path 71" d="M98.605,225.647c0-.573,0-1.493-.008-1.588-.017-.147-.113-.191-.3-.191h-.451c-.035,0-.053-.017-.053-.061v-.217c0-.052.018-.069.053-.069.1,0,.417.025,1.285.025.156,0,.66-.025.955-.025a3.236,3.236,0,0,1,2.049.442,1.642,1.642,0,0,1,.66,1.319c0,1.076-.833,1.753-2.31,1.753A5.33,5.33,0,0,1,99.7,227v.382c0,.416,0,1.6.008,1.709.026.191.113.278.269.278h.486c.069,0,.069.035.069.061v.2c0,.052,0,.087-.069.087-.122,0-.4-.025-1.337-.025-.764,0-1.112.025-1.2.025-.07,0-.07-.035-.07-.061v-.217c0-.053,0-.07.052-.07h.278c.295,0,.364-.035.391-.269.008-.087.025-1.441.025-2.447Zm1.095,1.041a2.219,2.219,0,0,0,.625.07,1.459,1.459,0,0,0,1.042-.59,1.613,1.613,0,0,0,.208-.9,1.362,1.362,0,0,0-1.372-1.449,1.225,1.225,0,0,0-.5.061Z" fill="#1e3c6c"/>
      <path id="Path_72" data-name="Path 72" d="M104.893,227.418c0,.521.018,1.493.035,1.623.026.174.087.33.226.33h.434c.052,0,.069.026.069.061v.209c0,.061-.026.078-.1.078-.113,0-.286-.025-1.19-.025-.851,0-1.059.025-1.146.025-.052,0-.07-.025-.07-.078v-.2c0-.044.018-.07.052-.07h.3c.191,0,.33-.052.33-.286.018-.868.018-1.684.018-2.5V224.3c0-.295-.122-.434-.278-.434h-.339c-.044,0-.061-.017-.061-.052v-.234c0-.044.017-.061.061-.061.061,0,.339.025,1.19.025.486,0,1.285-.025,1.546-.025a2.332,2.332,0,0,1,1.58.546,1.327,1.327,0,0,1,.469.972c0,1.093-.66,1.545-1.615,1.7v.035a1.139,1.139,0,0,1,.521.4c.1.139.642.955.712,1.059a12.173,12.173,0,0,0,.738.989.91.91,0,0,0,.616.165c.052,0,.07.026.07.061v.182c0,.061-.018.087-.07.087-.07,0-.3-.025-.851-.025-.243,0-.573.017-.764.025a2.246,2.246,0,0,1-.381-.494c-.157-.243-.5-.868-.573-1.007-.087-.156-.33-.555-.469-.746-.217-.3-.417-.538-.782-.538-.035,0-.182.009-.278.018Zm.018-.781a2.427,2.427,0,0,0,.33.034,1.518,1.518,0,0,0,1.633-1.492,1.365,1.365,0,0,0-.383-.972,1.661,1.661,0,0,0-1.146-.373.615.615,0,0,0-.313.052.3.3,0,0,0-.1.252Z" fill="#1e3c6c"/>
      <path id="Path_73" data-name="Path 73" d="M114.335,224.112a3.227,3.227,0,0,1,1.181,2.568,3.013,3.013,0,0,1-.642,1.909,3.076,3.076,0,0,1-2.605,1.232,3.992,3.992,0,0,1-1.962-.572,3.039,3.039,0,0,1-1.268-2.569,3.449,3.449,0,0,1,.8-2.152,2.973,2.973,0,0,1,2.448-1.111A3.076,3.076,0,0,1,114.335,224.112Zm-3.335.173a3.1,3.1,0,0,0-.782,2.1c0,2.256,1.389,3.055,2.119,3.055,1.754,0,2.032-1.944,2.032-2.673,0-1.892-1.285-2.968-2.118-2.968A1.5,1.5,0,0,0,111,224.285Z" fill="#1e3c6c"/>
      <path id="Path_74" data-name="Path 74" d="M116.9,225.7c0-.226-.035-1.458-.052-1.588-.018-.209-.139-.243-.312-.243h-.469a.061.061,0,0,1-.07-.061v-.234c0-.035.035-.052.078-.052.252,0,.7.025,1.311.025.435,0,.869-.025,1.3-.025a4.155,4.155,0,0,1,2.9.79,2.731,2.731,0,0,1,.972,2.2,3.075,3.075,0,0,1-.851,2.274,3.744,3.744,0,0,1-2.8.928c-.33,0-1.216-.025-1.65-.025-.765,0-1.112.025-1.233.025-.035,0-.052-.017-.052-.078v-.217c0-.035.017-.052.07-.052h.5c.174,0,.261-.07.287-.217.026-.173.061-2.135.061-2.794Zm1.094.851c0,.1.018,1.579.018,2.117a.768.768,0,0,0,.156.486c.1.165.434.234.764.234a2.277,2.277,0,0,0,1.806-.876,3.276,3.276,0,0,0,.625-1.979,3.033,3.033,0,0,0-.695-1.891,2.76,2.76,0,0,0-1.945-.816,1.136,1.136,0,0,0-.556.087.4.4,0,0,0-.156.382c-.018.364-.018,1.493-.018,1.631Z" fill="#1e3c6c"/>
      <path id="Path_75" data-name="Path 75" d="M123.743,224.3c0-.295-.069-.434-.3-.434h-.4c-.052,0-.07-.017-.07-.078v-.2c0-.052.018-.069.087-.069.087,0,.5.025,1.337.025.73,0,1.146-.025,1.251-.025.052,0,.069.017.069.061v.217c0,.053-.018.07-.069.07h-.365a.383.383,0,0,0-.426.339c-.009.1-.026.624-.026,1.128v1.076c0,.434.009,1.05.026,1.328a2.034,2.034,0,0,0,.3,1.076,1.434,1.434,0,0,0,1.181.538,1.834,1.834,0,0,0,1.164-.416,2.015,2.015,0,0,0,.5-1.467v-1.562a16.02,16.02,0,0,0-.1-1.657.381.381,0,0,0-.356-.382h-.312c-.053,0-.07-.026-.07-.061v-.217c0-.052.017-.069.07-.069.087,0,.486.025,1.059.025.538,0,.816-.025.886-.025s.087.025.087.069v.2c0,.052-.009.078-.052.078h-.313a.344.344,0,0,0-.364.339c-.018.1-.018,1.319-.018,1.432s-.018,1.631-.052,1.978a2.293,2.293,0,0,1-.73,1.666,2.344,2.344,0,0,1-1.58.538,3.559,3.559,0,0,1-1.25-.209,1.765,1.765,0,0,1-1.025-1.162,7.712,7.712,0,0,1-.156-2.092Z" fill="#1e3c6c"/>
      <path id="Path_76" data-name="Path 76" d="M135.372,228.277a.067.067,0,0,1,.017.087,3.117,3.117,0,0,1-2.587,1.458,3.076,3.076,0,0,1-2.275-.816,3.306,3.306,0,0,1-.938-2.343,3.365,3.365,0,0,1,.886-2.326,3,3,0,0,1,2.258-.92,3.782,3.782,0,0,1,1.754.417c.122.069.156.069.174,0l.07-.226c.017-.052.035-.052.139-.052s.122.018.122.139c0,.157.174,1.545.208,1.8.009.053,0,.079-.035.087l-.165.052c-.043.018-.069-.017-.1-.087a3.066,3.066,0,0,0-.677-1.128,2.069,2.069,0,0,0-1.511-.642c-1.389,0-1.962,1.249-1.962,2.5a3.512,3.512,0,0,0,.8,2.256,1.873,1.873,0,0,0,1.494.677,2.533,2.533,0,0,0,2.075-1.007c.044-.061.078-.087.1-.061Z" fill="#1e3c6c"/>
      <path id="Path_77" data-name="Path 77" d="M137.7,227.175c.008.469.026,1.32.026,1.476,0,.451.156.624.347.676a2.737,2.737,0,0,0,.677.07c.157,0,.556-.017.73-.035a1.488,1.488,0,0,0,.712-.3c.156-.139.642-.712.808-.92.035-.043.061-.051.1-.035l.139.087c.026.017.035.043.018.087l-.417,1.3a.183.183,0,0,1-.191.13c-.044,0-.234-.008-.773-.017s-1.441-.008-2.891-.008c-.321,0-.556.008-.738.008s-.295.017-.374.017c-.052,0-.069-.017-.069-.069v-.208c0-.053.018-.07.087-.07h.3c.4,0,.434-.052.434-.373v-2.916c0-.712-.018-1.787-.035-1.909-.035-.234-.122-.3-.383-.3h-.33c-.035,0-.052-.017-.052-.061v-.226c0-.044.008-.061.052-.061.191,0,.5.035,1.216.025h.243c.382,0,2.379-.017,2.761-.017.139,0,.3-.008.347-.008a.06.06,0,0,1,.07.052c.035.113.364,1.293.4,1.38.018.052.008.078-.026.1l-.156.07c-.026.009-.052,0-.078-.044a8.262,8.262,0,0,0-.955-.972,1.5,1.5,0,0,0-.66-.226l-1.32-.035-.018,2.508c.261,0,.886-.018.99-.043a.486.486,0,0,0,.4-.313,1.382,1.382,0,0,0,.139-.486.064.064,0,0,1,.07-.07l.226.018c.035,0,.061.017.052.07-.017.139-.017.712-.017.937,0,.347.035.763.052.954,0,.043-.018.052-.07.061l-.191.035c-.035.008-.052-.009-.069-.061a3.717,3.717,0,0,0-.139-.434.53.53,0,0,0-.434-.312c-.312-.035-.73-.052-1.007-.052Z" fill="#1e3c6c"/>
      <path id="Path_78" data-name="Path 78" d="M143.217,227.418c0,.521.018,1.493.035,1.623.026.174.087.33.226.33h.435c.052,0,.069.026.069.061v.209c0,.061-.026.078-.1.078-.113,0-.286-.025-1.19-.025-.851,0-1.059.025-1.146.025-.052,0-.07-.025-.07-.078v-.2c0-.044.018-.07.052-.07h.3c.191,0,.33-.052.33-.286.018-.868.018-1.684.018-2.5V224.3c0-.295-.122-.434-.278-.434h-.338c-.044,0-.061-.017-.061-.052v-.234c0-.044.018-.061.061-.061.061,0,.338.025,1.19.025.486,0,1.285-.025,1.545-.025a2.334,2.334,0,0,1,1.581.546,1.329,1.329,0,0,1,.469.972c0,1.093-.66,1.545-1.615,1.7v.035a1.141,1.141,0,0,1,.521.4c.1.139.643.955.712,1.059a12.175,12.175,0,0,0,.738.989.911.911,0,0,0,.616.165c.052,0,.07.026.07.061v.182c0,.061-.018.087-.07.087-.069,0-.295-.025-.851-.025-.243,0-.573.017-.764.025a2.246,2.246,0,0,1-.382-.494c-.156-.243-.5-.868-.573-1.007-.087-.156-.33-.555-.469-.746-.217-.3-.417-.538-.782-.538-.035,0-.182.009-.278.018Zm.018-.781a2.419,2.419,0,0,0,.33.034,1.518,1.518,0,0,0,1.632-1.492,1.367,1.367,0,0,0-.382-.972,1.661,1.661,0,0,0-1.146-.373.611.611,0,0,0-.312.052.3.3,0,0,0-.1.252Z" fill="#1e3c6c"/>
      <path id="Path_79" data-name="Path 79" d="M147.908,227.756c.035,0,.052.018.052.07a2,2,0,0,0,.33.989,1.349,1.349,0,0,0,1.146.625,1.062,1.062,0,0,0,1.129-1.015c0-.8-.365-1.059-1.285-1.406a4.122,4.122,0,0,1-1.268-.729,1.651,1.651,0,0,1-.434-1.241,1.472,1.472,0,0,1,.608-1.214,1.773,1.773,0,0,1,1.233-.417,2.744,2.744,0,0,1,1.094.208.149.149,0,0,0,.182-.026l.113-.113a.158.158,0,0,1,.122-.052c.052,0,.069.052.069.139,0,.139.139,1.354.139,1.44a.057.057,0,0,1-.053.061l-.139.044a.066.066,0,0,1-.087-.051,2.485,2.485,0,0,0-.539-.92,1.138,1.138,0,0,0-.9-.364.927.927,0,0,0-.972.876,1.057,1.057,0,0,0,.243.781,2.92,2.92,0,0,0,1.059.538,2.73,2.73,0,0,1,1.25.676,1.666,1.666,0,0,1,.434,1.241,1.809,1.809,0,0,1-1.84,1.926,2.269,2.269,0,0,1-1.476-.416c-.1-.07-.156-.1-.208-.1s-.087.07-.139.156-.087.1-.156.1-.1-.052-.1-.139c.017-.1.139-1.51.156-1.614.009-.053.018-.07.052-.07Z" fill="#1e3c6c"/>
      <path id="Path_80" data-name="Path 80" d="M159.458,228.277a.067.067,0,0,1,.018.087,3.118,3.118,0,0,1-2.588,1.458,3.076,3.076,0,0,1-2.275-.816,3.3,3.3,0,0,1-.938-2.343,3.365,3.365,0,0,1,.886-2.326,3,3,0,0,1,2.258-.92,3.78,3.78,0,0,1,1.753.417c.122.069.157.069.174,0l.07-.226c.018-.052.035-.052.139-.052s.122.018.122.139c0,.157.174,1.545.208,1.8.009.053,0,.079-.035.087l-.165.052c-.044.018-.07-.017-.1-.087a3.073,3.073,0,0,0-.677-1.128,2.07,2.07,0,0,0-1.511-.642c-1.389,0-1.963,1.249-1.963,2.5a3.513,3.513,0,0,0,.8,2.256,1.871,1.871,0,0,0,1.494.677,2.534,2.534,0,0,0,2.075-1.007c.044-.061.078-.087.1-.061Z" fill="#1e3c6c"/>
      <path id="Path_81" data-name="Path 81" d="M165.1,224.112a3.227,3.227,0,0,1,1.181,2.568,3.016,3.016,0,0,1-.642,1.909,3.076,3.076,0,0,1-2.605,1.232,3.992,3.992,0,0,1-1.962-.572,3.037,3.037,0,0,1-1.268-2.569,3.448,3.448,0,0,1,.8-2.152,2.973,2.973,0,0,1,2.448-1.111A3.076,3.076,0,0,1,165.1,224.112Zm-3.335.173a3.093,3.093,0,0,0-.781,2.1c0,2.256,1.389,3.055,2.118,3.055,1.754,0,2.032-1.944,2.032-2.673,0-1.892-1.285-2.968-2.118-2.968A1.5,1.5,0,0,0,161.761,224.285Z" fill="#1e3c6c"/>
      <path id="Path_82" data-name="Path 82" d="M173.008,226.55c0-.261,0-2.412-.017-2.447h-.035c-.07.122-1.164,2.656-1.268,2.881-.13.277-1.016,2.326-1.059,2.412-.035.07-.1.191-.191.191-.052,0-.1-.052-.139-.156-.035-.051-1.164-2.76-1.216-2.9-.156-.4-.954-2.343-1.059-2.447-.035.122-.044,2.308-.044,2.412s-.008,1.579.044,2.143c.035.4.139.729.417.729h.382a.062.062,0,0,1,.07.061v.217c0,.035-.017.069-.087.069-.087,0-.33-.025-.99-.025-.747,0-1.042.025-1.129.025-.07,0-.07-.017-.07-.078v-.217c0-.017,0-.052.052-.052h.4c.3,0,.391-.313.435-.616.078-.608.13-2.742.13-2.9v-1.484c0-.313-.044-.5-.426-.5h-.383a.061.061,0,0,1-.069-.061v-.234c0-.018.017-.052.069-.052.088,0,.313.025,1.234.025.417,0,.66-.025.764-.025a.2.2,0,0,1,.209.147c.312.816,1.528,3.7,1.788,4.408.079-.156.695-1.588.92-2.1.156-.365.938-2.153.981-2.326.026-.087.13-.1.339-.1,1.268.009,1.563-.025,1.667-.025.035,0,.052.035.052.078v.183c0,.052-.017.087-.07.087h-.381c-.226,0-.243.156-.252.339s-.009,1.926-.009,2.152v.607c0,.52.018,1.788.018,1.935.008.33.087.469.243.469h.469c.052,0,.052.035.052.061v.2c0,.052,0,.087-.07.087-.1,0-.521-.025-1.285-.025-.851,0-1.18.025-1.3.025-.052,0-.07-.035-.07-.078v-.2c0-.053.018-.07.07-.07h.539c.156,0,.226-.052.251-.3.009-.087.026-1.337.026-2.031Z" fill="#1e3c6c"/>
      <path id="Path_83" data-name="Path 83" d="M176.042,225.647c0-.573,0-1.493-.008-1.588-.018-.147-.113-.191-.3-.191h-.451c-.035,0-.053-.017-.053-.061v-.217c0-.052.018-.069.053-.069.1,0,.417.025,1.285.025.156,0,.659-.025.955-.025a3.239,3.239,0,0,1,2.049.442,1.643,1.643,0,0,1,.66,1.319c0,1.076-.834,1.753-2.31,1.753a5.333,5.333,0,0,1-.781-.035v.382c0,.416,0,1.6.008,1.709.026.191.113.278.269.278h.486c.07,0,.07.035.07.061v.2c0,.052,0,.087-.07.087-.122,0-.4-.025-1.337-.025-.765,0-1.112.025-1.2.025-.07,0-.07-.035-.07-.061v-.217c0-.053,0-.07.053-.07h.277c.3,0,.365-.035.391-.269.009-.087.027-1.441.027-2.447Zm1.094,1.041a2.22,2.22,0,0,0,.625.07,1.459,1.459,0,0,0,1.041-.59,1.609,1.609,0,0,0,.209-.9,1.363,1.363,0,0,0-1.372-1.449,1.226,1.226,0,0,0-.5.061Z" fill="#1e3c6c"/>
      <path id="Path_84" data-name="Path 84" d="M181.375,227.305c-.07.2-.495,1.44-.538,1.675a.72.72,0,0,0-.018.182c0,.113.139.208.313.208h.365c.069,0,.087.017.087.043v.217c0,.052-.018.087-.07.087-.121,0-.486-.025-1.095-.025-.642,0-.833.025-.954.025-.053,0-.053-.051-.053-.112v-.165c0-.053.018-.07.053-.07h.26c.243,0,.4-.121.556-.39.087-.156.712-1.719.972-2.447.061-.174.764-2.048.851-2.274.018-.087.07-.243.018-.295a.2.2,0,0,1-.052-.1c0-.035.017-.07.087-.087a2.809,2.809,0,0,0,.86-.434c.052-.052.087-.087.13-.087s.087.1.1.156c.156.538.833,2.481.99,3.037.208.678.764,2.291.885,2.525a.656.656,0,0,0,.556.4h.278c.052,0,.07.017.07.061v.182c0,.053-.018.1-.087.1-.157,0-.33-.025-1.285-.025-.73,0-1.025.025-1.216.025-.07,0-.087-.051-.087-.1v-.173c0-.053.017-.07.07-.07h.226c.243,0,.312-.087.26-.321-.07-.313-.417-1.424-.521-1.744Zm1.928-.347c-.087-.252-.677-2.23-.729-2.4-.035-.1-.052-.156-.087-.156-.052,0-.087.035-.113.113-.035.113-.816,2.247-.877,2.447Z" fill="#1e3c6c"/>
      <path id="Path_85" data-name="Path 85" d="M187.273,225.769c0,1.475.07,2.69.087,2.959.018.434.121.643.434.643h.226c.07,0,.07.035.07.078v.2c0,.052,0,.069-.07.069-.087,0-.607-.025-.937-.025-.226,0-.817.025-.9.025-.035,0-.052-.017-.052-.078v-.217a.055.055,0,0,1,.052-.052h.3c.226,0,.347-.191.391-.72.009-.156.061-1.371.061-2.76v-1.1c0-.52-.295-.92-.677-.92h-.277c-.035-.008-.053-.026-.053-.061v-.234a.046.046,0,0,1,.053-.052c.043,0,.113.008.269.017s.391.009.773.009c.147,0,.277-.009.382-.017s.191-.008.243-.008a.255.255,0,0,1,.208.078c.087.087,1.789,2.222,1.962,2.465.122.139,1.477,1.822,1.615,2h.035v-.9c0-.764,0-1.2-.018-1.631-.018-.33-.052-1.18-.1-1.328a.466.466,0,0,0-.46-.33h-.278c-.052,0-.052-.035-.052-.078v-.2c0-.052,0-.069.07-.069.1,0,.382.025.973.025.521,0,.729-.025.833-.025.07,0,.087.035.087.061v.2c0,.052-.017.087-.052.087h-.243c-.173,0-.26.139-.286.46-.043.59-.13,2.048-.13,2.933v2.291c0,.122,0,.243-.1.243a.433.433,0,0,1-.3-.139c-.069-.087-.538-.625-1.076-1.267-.608-.746-1.285-1.562-1.389-1.7-.122-.121-1.511-1.857-1.615-1.979h-.052Z" fill="#1e3c6c"/>
      <path id="Path_86" data-name="Path 86" d="M196.236,228.077c0,.33.017.9.026,1,.026.277.165.295.339.295h.286a.055.055,0,0,1,.061.061v.2c0,.061-.018.087-.061.087-.1,0-.443-.025-1.225-.025-.851,0-1.129.025-1.207.025-.044,0-.061-.035-.061-.078v-.2a.061.061,0,0,1,.061-.07h.356c.226,0,.3-.087.3-.217s.026-.8.026-1.614v-.416c-.139-.26-1.546-2.76-1.788-3.064a.623.623,0,0,0-.434-.191h-.156c-.052,0-.07-.017-.07-.061v-.234c0-.035.018-.052.07-.052.07,0,.486.025,1.146.025.886,0,1.2-.025,1.285-.025.052,0,.069.017.069.061v.2c0,.052-.017.087-.069.087h-.226c-.191,0-.26.07-.243.252.017.156,1.059,2.083,1.294,2.568a25.712,25.712,0,0,0,1.433-2.507c.017-.157-.035-.313-.3-.313h-.226c-.052,0-.069-.026-.069-.07v-.217c0-.044.017-.061.052-.061.087,0,.452.025,1.06.025.555,0,.747-.025.833-.025.052,0,.07.017.07.061v.2c0,.052-.018.087-.07.087h-.191a.688.688,0,0,0-.469.2c-.139.156-1.58,2.377-1.91,2.95Z" fill="#1e3c6c"/>
      <path id="Path_87" data-name="Path 87" d="M205.695,227.9c.017.018.017.035.017.087-.035.052-.382,1.492-.434,1.726-.226-.008-2.727-.025-3.612-.025-.782,0-1.094.025-1.2.025-.07,0-.07-.017-.07-.078v-.2c0-.053,0-.07.052-.07h.347c.312,0,.365-.121.365-.234,0-.156.034-2.326.034-2.847V225.8c0-.555-.017-1.475-.034-1.622-.018-.226-.053-.313-.278-.313h-.364a.075.075,0,0,1-.07-.078v-.2c0-.052.018-.069.07-.069.087,0,.4.025,1.2.025.938,0,1.3-.025,1.372-.025s.087.035.087.078v.2c0,.035-.018.07-.087.07h-.469c-.261,0-.3.087-.3.321,0,.122-.035,1.424-.035,2.031v.746c0,.157,0,2.031.035,2.4h.486c.486,0,1.112,0,1.458-.044.487-.07,1.042-1.111,1.164-1.441.035-.035.052-.052.1-.035Z" fill="#1e3c6c"/>
      <path id="Path_88" data-name="Path 88" d="M207.1,223.912h-.243a4.824,4.824,0,0,0-1.268.121c-.277.122-.607.695-.773.99-.026.044-.052.078-.1.061l-.174-.061a.067.067,0,0,1-.035-.087c.087-.33.382-1.476.417-1.6.018-.122.07-.156.1-.156.052,0,.087.035.139.087a.778.778,0,0,0,.591.226c.469.018.833.052,1.684.052h.469c.955,0,1.32-.035,1.719-.052a1.589,1.589,0,0,0,.625-.226c.07-.052.1-.087.157-.087s.069.035.087.139c.018.156.191,1.232.261,1.648.008.053-.009.07-.035.078l-.174.061c-.035.008-.052-.017-.078-.07a3.434,3.434,0,0,0-.686-.972,4.173,4.173,0,0,0-1.337-.156h-.243v4.625c0,.659.087.833.3.833h.5c.034,0,.052.035.052.078v.182c0,.052-.018.087-.087.087-.087,0-.364-.025-1.3-.025-.885,0-1.25.025-1.372.025-.052,0-.069-.017-.069-.078v-.2c0-.053.026-.07.061-.07h.495a.26.26,0,0,0,.286-.234c.026-.226.026-2.881.026-3.055Z" fill="#1e3c6c"/>
      <path id="Path_89" data-name="Path 89" d="M211.872,225.7c0-.226-.035-1.458-.052-1.588-.018-.209-.139-.243-.313-.243h-.469a.061.061,0,0,1-.069-.061v-.234c0-.035.035-.052.078-.052.252,0,.7.025,1.311.025.434,0,.869-.025,1.3-.025a4.155,4.155,0,0,1,2.9.79,2.733,2.733,0,0,1,.972,2.2,3.075,3.075,0,0,1-.851,2.274,3.743,3.743,0,0,1-2.8.928c-.33,0-1.216-.025-1.65-.025-.764,0-1.112.025-1.233.025-.035,0-.053-.017-.053-.078v-.217c0-.035.018-.052.07-.052h.5c.174,0,.261-.07.286-.217.026-.173.061-2.135.061-2.794Zm1.093.851c0,.1.018,1.579.018,2.117a.771.771,0,0,0,.156.486c.1.165.435.234.765.234a2.277,2.277,0,0,0,1.806-.876,3.279,3.279,0,0,0,.625-1.979,3.039,3.039,0,0,0-.694-1.891,2.763,2.763,0,0,0-1.946-.816,1.137,1.137,0,0,0-.556.087.4.4,0,0,0-.156.382c-.018.364-.018,1.493-.018,1.631Z" fill="#1e3c6c"/>
    </g>
    <g id="Group_12" data-name="Group 12">
      <path id="Path_90" data-name="Path 90" d="M156.787,165.413l.63,0c4.4,0,8.707.067,12.913.2a219.284,219.284,0,0,0-23.616-6.964q-1.077,1.075-2.04,2.013C150.059,162.492,154.085,164.176,156.787,165.413Z" fill="#1e3c6c"/>
      <path id="Path_91" data-name="Path 91" d="M143.08,165.654q3.3-.113,6.68-.174c-2.093-1.093-4.4-2.133-6.862-3.118-.818.774-1.564,1.462-2.246,2.078C141.638,164.912,142.448,165.322,143.08,165.654Z" fill="#1e3c6c"/>
      <path id="Path_92" data-name="Path 92" d="M157.417,92.821a70.92,70.92,0,0,0-70.292,80.333,123.849,123.849,0,0,1,18.981-4.251A110.7,110.7,0,0,0,90.7,163.685a88.921,88.921,0,0,1,18.973,4.694q1.462-.2,2.97-.395a192.924,192.924,0,0,0-22.736-6.5,119.817,119.817,0,0,1,26.524,5.388c.552.175,1.059.34,1.526.494q2.908-.31,5.957-.575a65.923,65.923,0,0,1,4.717-5.015c-15.821-7.237-37.241-11.166-37.241-11.166a192.651,192.651,0,0,1,38.958,9.523q.783-.736,1.668-1.545c-19.355-5.88-41.315-8.961-41.315-8.961a260.119,260.119,0,0,1,42.8,7.62q.692-.618,1.44-1.275c-22.9-4.857-44.241-7.6-44.241-7.6a423.222,423.222,0,0,1,45.717,6.311c5.377-4.638,12.783-10.626,22.963-18.249a2.306,2.306,0,0,1,0-3.253l1.1-1.1-4.343-4.389a7.792,7.792,0,0,1-10.733-.8l-2.489-2.777.036-.03-.735-.82a3.986,3.986,0,0,1,.31-5.614l16.866-15.093a3.992,3.992,0,0,1,5.618.31l1.362,1.52,0,0,1.861,2.077a7.78,7.78,0,0,1-.572,10.927l15.787,16.5a7.791,7.791,0,0,1,10.846.705l2.489,2.778-.036.03.735.82a3.986,3.986,0,0,1-.31,5.614L180.308,158.93a3.992,3.992,0,0,1-5.618-.31l-1.362-1.52,0,0-1.861-2.077a7.78,7.78,0,0,1,.605-10.959l.141-.126-4.2-4.243-1.057,1.056a2.309,2.309,0,0,1-3.255,0l-.08-.081-.183.2c-6.335,7.016-11.334,12.312-15.279,16.312a268.822,268.822,0,0,1,30.429,8.755q4.112.212,8.046.5a131.674,131.674,0,0,1,36.076-19.133s-22.655,10.719-32.615,19.406q3.651.307,7.108.679a89.079,89.079,0,0,1,25.507-17.5s-17.284,9.33-22.006,17.895q1.965.237,3.852.495c2.792-3.427,9.488-10.918,18.154-15.685,0,0-11.585,9.005-15.568,16.052a128.61,128.61,0,0,1,20.571,4.494,70.924,70.924,0,0,0-70.293-80.333Z" fill="#1e3c6c"/>
    </g>
  </g>
</svg>
