<svg id="call" xmlns="http://www.w3.org/2000/svg" width="11.896" height="11.896" viewBox="0 0 11.896 11.896">
  <g id="Group_14" data-name="Group 14">
    <path id="Path_95" data-name="Path 95" d="M10.941,7.808A6.754,6.754,0,0,1,8.82,7.47a.969.969,0,0,0-.943.2L6.54,8.679A7.392,7.392,0,0,1,3.216,5.356l.98-1.3a.961.961,0,0,0,.237-.974A6.764,6.764,0,0,1,4.094.955.956.956,0,0,0,3.139,0H.955A.956.956,0,0,0,0,.955,10.953,10.953,0,0,0,10.941,11.9a.956.956,0,0,0,.955-.955V8.763A.956.956,0,0,0,10.941,7.808Z" fill="#1e3b6c"/>
  </g>
</svg>
