<svg id="_003-youtube" data-name="003-youtube" xmlns="http://www.w3.org/2000/svg" width="20.687" height="14.484" viewBox="0 0 20.687 14.484">
  <path id="Path_97" data-name="Path 97" d="M20.261,2.266A2.592,2.592,0,0,0,18.438.443C16.819,0,10.343,0,10.343,0S3.868,0,2.249.426A2.645,2.645,0,0,0,.426,2.266,27.311,27.311,0,0,0,0,7.242a27.211,27.211,0,0,0,.426,4.976,2.592,2.592,0,0,0,1.823,1.823c1.636.443,8.094.443,8.094.443s6.475,0,8.094-.426a2.592,2.592,0,0,0,1.823-1.823,27.312,27.312,0,0,0,.426-4.976A25.923,25.923,0,0,0,20.261,2.266Zm0,0" transform="translate(0)" fill="#979797"/>
  <path id="Path_98" data-name="Path 98" d="M204.969,108.687l5.385-3.1-5.385-3.1Zm0,0" transform="translate(-196.687 -98.344)" fill="#fff"/>
</svg>
